<svg xmlns="http://www.w3.org/2000/svg" version="1.1" xmlns:xlink="http://www.w3.org/1999/xlink" viewBox="0 0 200 200" width="200" height="200"><metadata><rdf:RDF xmlns:rdf="http://www.w3.org/1999/02/22-rdf-syntax-ns#" xmlns:dc="http://purl.org/dc/elements/1.1/"><rdf:Description><dc:creator>RealFaviconGenerator</dc:creator><dc:source>https://realfavicongenerator.net</dc:source></rdf:Description></rdf:RDF></metadata><rect width="200" height="200" fill="url('#gradient')"></rect><defs><linearGradient id="gradient" gradientTransform="rotate(50 0.5 0.5)"><stop offset="0%" stop-color="#ffaa7c"></stop><stop offset="100%" stop-color="#81ff46"></stop></linearGradient></defs><g><g fill="#445272" transform="matrix(5.228647214854111,0,0,5.228647214854111,17.386590436472503,137.17505726219804)" stroke="#c8512e" stroke-width="0.85"><path d="M1.07-14.22L5.58-14.22L8.75-4.33L11.91-14.22L16.43-14.22L16.43 0L12.99 0L12.99-3.32L13.32-10.12L9.88 0L7.62 0L4.17-10.13L4.50-3.32L4.50 0L1.07 0L1.07-14.22ZM26.46 0L23.44-5.29L22.03-3.75L22.03 0L18.60 0L18.60-14.22L22.03-14.22L22.03-7.95L23.22-9.76L26.29-14.22L30.53-14.22L25.72-7.93L30.53 0L26.46 0Z"></path></g></g></svg>